<svg width="144" height="144" viewBox="0 0 144 144" fill="none" xmlns="http://www.w3.org/2000/svg">
<rect width="144" height="144" fill="#2AA5FF"/>
<path fill-rule="evenodd" clip-rule="evenodd" d="M0 0H9V9H0V0ZM0 54H9V63H0V54ZM9 63H18V72H9V63ZM72 117H81V126H72V117ZM63 108H54V117H63V108ZM63 99V108H72V99H81V90H72V99H63ZM63 99V90H54V99H63ZM135 72H126V81H117V72H108V81H117V90H126V81H135V72ZM99 45H108V54H99V45ZM135 99H126V108H135V99ZM72 36H90V45H72V36ZM72 9H63V18H72V9ZM144 18V27H135V18H126V9H144V18ZM90 0H81V9H90V0ZM54 36H45V45H36V54H45V45H54V36ZM54 36H63V27H54V36Z" fill="#F4EFDA"/>
<path fill-rule="evenodd" clip-rule="evenodd" d="M72 0H54V9H72V0ZM36 18H18V27H9V54H27V36H36V18ZM99 0H108V9H99V0ZM117 45H135V63H117V45ZM27 99V108H36V117H45V126H36H18V117H9V99H18V90H27V99ZM117 135V108H99V99H90V108H99V117H90V126H99V135H117ZM54 81H63V72H81V81V90H54V81ZM81 54H99V63V72H90V63H81V54Z" fill="#1460A0"/>
<path fill-rule="evenodd" clip-rule="evenodd" d="M18 0H9V9H18V18H0V27V36H9V27H18V18H36V9H18V0ZM9 108V99H18V90H27V81H18V72H0V81V90V99V108H9ZM18 117V126H36V135H9V126V117H18ZM36 135V144H45V135H36ZM36 108H45V117H36V108ZM36 99V81H45V90H54V108H45V99H36ZM36 99H27V108H36V99ZM45 63H72V72H63V81H54V72H45V63ZM72 54V63H81V54H90V45H81V54H72ZM63 36V45H72V54H54V45V36H63ZM63 36H72H81V27H90V18V9H81V18H72V27H63V36ZM45 63H36V54H45V63ZM18 54H27V63H18V54ZM45 36H27V45H45V36ZM45 0H54V9H45V0ZM54 18V9H63V18H54ZM81 126V135H90V144H117V135H126V126H135V144H144V126H135V108H126V126H117V135H99V126H81ZM72 135V144H54V135H72ZM117 0H135V9H117V0ZM108 9H99V18H108V9ZM135 18H117V27H135V18ZM99 27H108V36H99V27ZM108 36H135V45H117V54H108V45V36ZM108 81H117V90H108V81ZM108 99V90H90V99H81V117H90V99H108ZM117 99V108H108V99H117ZM117 99H126V90H117V99ZM135 54H144V63H135V54ZM135 63V72H117V63H135ZM144 81H135V99H144V81ZM81 72H90V81H81V72ZM72 108H63V117H54V126H72V117V108Z" fill="#2D78DC"/>
<path fill-rule="evenodd" clip-rule="evenodd" d="M45 0H36V18H45V27H54V18H45V0ZM81 0H72V9H81V0ZM99 27H90V45H99V27ZM99 18V27H117V18H126V9H117V18H99ZM99 18H90V9H99V18ZM135 27H144V45H135V27ZM135 72H144V81H135V72ZM144 117H135V126H144V117ZM126 90H135V99H126V90ZM108 72H99V81H81V90H99V81H108V72ZM108 63V54H99V63H108ZM108 63V72H117V63H108ZM9 45H0V54H9V45ZM36 126H45V135H36V126ZM36 135V144H9H0V117H9V135H36ZM45 126V117H54V126H45ZM81 135H90V144H81V135ZM81 135H72V126H81V135ZM72 108H81V117H72V108ZM9 63H0V72H9V63ZM18 63H27V72H18V63ZM27 63V54H36V63H27ZM27 81V72H45V81H27ZM72 36H63V45H72V36Z" fill="#8AFFFF"/>
</svg>
