<svg width="144" height="144" viewBox="0 0 144 144" fill="none" xmlns="http://www.w3.org/2000/svg">
<rect width="144" height="144" fill="#62B014"/>
<rect width="9" height="9" fill="#358141"/>
<rect y="36" width="9" height="9" fill="#89D640"/>
<rect x="9" y="90" width="9" height="9" fill="#89D640"/>
<rect x="36" y="36" width="9" height="9" fill="#89D640"/>
<rect x="18" y="99" width="9" height="9" fill="#89D640"/>
<rect x="45" y="45" width="9" height="9" fill="#89D640"/>
<rect x="45" y="9" width="9" height="9" fill="#89D640"/>
<rect x="54" width="9" height="9" fill="#89D640"/>
<rect x="99" width="9" height="9" fill="#89D640"/>
<rect x="135" y="45" width="9" height="9" fill="#89D640"/>
<rect x="108" y="36" width="9" height="9" fill="#89D640"/>
<rect x="99" y="27" width="9" height="9" fill="#89D640"/>
<rect x="135" y="54" width="9" height="9" fill="#89D640"/>
<rect x="108" y="45" width="9" height="9" fill="#89D640"/>
<rect x="135" y="63" width="9" height="9" fill="#89D640"/>
<rect x="135" y="108" width="9" height="9" fill="#89D640"/>
<rect x="126" y="99" width="9" height="9" fill="#89D640"/>
<rect x="135" y="117" width="9" height="9" fill="#89D640"/>
<rect x="108" y="54" width="9" height="9" fill="#89D640"/>
<rect x="36" y="126" width="9" height="9" fill="#89D640"/>
<rect x="117" y="117" width="9" height="9" fill="#89D640"/>
<rect x="18" y="108" width="9" height="9" fill="#89D640"/>
<rect x="45" y="54" width="9" height="9" fill="#89D640"/>
<rect x="81" y="81" width="9" height="9" fill="#89D640"/>
<rect x="90" y="72" width="9" height="9" fill="#89D640"/>
<rect x="81" y="90" width="9" height="9" fill="#89D640"/>
<rect x="45" y="18" width="9" height="9" fill="#89D640"/>
<rect x="36" y="117" width="9" height="9" fill="#89D640"/>
<rect x="108" y="108" width="9" height="9" fill="#89D640"/>
<rect x="45" y="108" width="9" height="9" fill="#89D640"/>
<rect x="36" y="135" width="9" height="9" fill="#89D640"/>
<rect x="117" y="126" width="9" height="9" fill="#89D640"/>
<rect x="117" y="135" width="9" height="9" fill="#89D640"/>
<rect x="9" y="9" width="9" height="9" fill="#358141"/>
<rect x="18" y="18" width="9" height="9" fill="#358141"/>
<rect x="27" width="9" height="9" fill="#358141"/>
<rect x="81" width="9" height="9" fill="#358141"/>
<rect x="72" y="18" width="9" height="9" fill="#358141"/>
<rect x="63" y="27" width="9" height="9" fill="#358141"/>
<rect x="63" y="36" width="9" height="9" fill="#358141"/>
<rect x="63" y="45" width="9" height="9" fill="#358141"/>
<rect x="99" y="54" width="9" height="9" fill="#358141"/>
<rect x="108" y="63" width="9" height="9" fill="#358141"/>
<rect x="117" y="72" width="9" height="9" fill="#358141"/>
<rect x="117" y="27" width="9" height="9" fill="#358141"/>
<rect x="117" y="18" width="9" height="9" fill="#358141"/>
<rect x="126" y="9" width="9" height="9" fill="#358141"/>
<rect x="90" y="108" width="9" height="9" fill="#358141"/>
<rect x="81" y="135" width="9" height="9" fill="#358141"/>
<rect x="72" y="126" width="9" height="9" fill="#358141"/>
<rect x="99" y="99" width="9" height="9" fill="#358141"/>
<rect x="117" y="81" width="9" height="9" fill="#358141"/>
<rect x="117" y="36" width="9" height="9" fill="#358141"/>
<rect x="90" y="117" width="9" height="9" fill="#358141"/>
<rect x="135" y="99" width="9" height="9" fill="#358141"/>
<rect x="18" y="27" width="9" height="9" fill="#358141"/>
<rect y="108" width="9" height="9" fill="#358141"/>
<rect x="27" y="9" width="9" height="9" fill="#358141"/>
<rect x="18" y="36" width="9" height="9" fill="#358141"/>
<rect y="117" width="9" height="9" fill="#358141"/>
<rect y="126" width="9" height="9" fill="#358141"/>
<rect x="27" y="135" width="9" height="9" fill="#358141"/>
<rect x="18" y="54" width="9" height="9" fill="#358141"/>
<rect x="45" y="90" width="9" height="9" fill="#358141"/>
<rect x="27" y="63" width="9" height="9" fill="#358141"/>
<rect x="54" y="99" width="9" height="9" fill="#358141"/>
<rect x="9" y="63" width="9" height="9" fill="#5CA41B"/>
<rect x="9" y="117" width="9" height="9" fill="#5CA41B"/>
<rect x="9" y="126" width="9" height="9" fill="#5CA41B"/>
<rect x="27" y="72" width="9" height="9" fill="#358141"/>
<rect x="54" y="108" width="9" height="9" fill="#358141"/>
<rect x="9" y="72" width="9" height="9" fill="#5CA41B"/>
<rect x="36" y="99" width="9" height="9" fill="#5CA41B"/>
<rect x="72" y="63" width="9" height="9" fill="#5CA41B"/>
<rect x="108" y="90" width="9" height="9" fill="#5CA41B"/>
<rect x="31" y="9" width="9" height="126" fill="#262626"/>
<rect x="40" y="18" width="9" height="54" fill="#FF0000"/>
<rect x="49" y="18" width="9" height="54" fill="#FF0000"/>
<rect x="58" y="27" width="9" height="54" fill="#FF0000"/>
<rect x="67" y="27" width="9" height="54" fill="#FF0000"/>
<rect x="76" y="36" width="9" height="54" fill="#FF0000"/>
<rect x="85" y="36" width="9" height="54" fill="#FF0000"/>
<rect x="94" y="45" width="9" height="54" fill="#FF0000"/>
<rect x="103" y="45" width="9" height="54" fill="#FF0000"/>
<rect x="40" y="9" width="18" height="9" fill="#262626"/>
<rect x="40" y="72" width="18" height="9" fill="#262626"/>
<rect x="58" y="18" width="18" height="9" fill="#262626"/>
<rect x="58" y="81" width="18" height="9" fill="#262626"/>
<rect x="76" y="27" width="18" height="9" fill="#262626"/>
<rect x="76" y="90" width="18" height="9" fill="#262626"/>
<rect x="112" y="45" width="9" height="54" fill="#262626"/>
<rect x="94" y="36" width="18" height="9" fill="#262626"/>
<rect x="94" y="99" width="18" height="9" fill="#262626"/>
</svg>
