<svg width="144" height="144" viewBox="0 0 144 144" fill="none" xmlns="http://www.w3.org/2000/svg">
<rect width="144" height="144" fill="#F4D892"/>
<rect x="135" width="9" height="9" fill="#E4CA88"/>
<rect x="126" y="36" width="9" height="9" fill="#E4CA88"/>
<path fill-rule="evenodd" clip-rule="evenodd" d="M117 99H90V108H81V117H117V108V99Z" fill="#C9C7A4"/>
<rect x="90" y="108" width="9" height="18" fill="#D6D4AF"/>
<path fill-rule="evenodd" clip-rule="evenodd" d="M126 108H117V117H99V126H90V117H72V126H90V135H108V126H126V117V108Z" fill="#AFAD8E"/>
<rect x="54" y="72" width="45" height="9" fill="#AFAD8E"/>
<rect x="45" y="63" width="72" height="9" fill="#AFAD8E"/>
<rect x="108" y="54" width="9" height="9" fill="#AFAD8E"/>
<rect x="63" y="63" width="18" height="9" fill="#C9C7A4"/>
<rect x="54" y="54" width="45" height="9" fill="#C9C7A4"/>
<rect x="54" y="45" width="54" height="9" fill="#C9C7A4"/>
<rect y="9" width="9" height="9" fill="#E4CA88"/>
<rect x="18" y="45" width="9" height="9" fill="#E4CA88"/>
<rect x="72" y="126" width="18" height="9" fill="#E4CA88"/>
<rect x="90" y="135" width="27" height="9" fill="#E4CA88"/>
<rect x="108" y="126" width="27" height="9" fill="#E4CA88"/>
<rect x="9" y="76" width="9" height="9" fill="#E4CA88"/>
<rect x="65" y="90" width="9" height="9" fill="#E4CA88"/>
<rect x="72" y="108" width="9" height="9" fill="#E4CA88"/>
<rect x="18" y="85" width="9" height="9" fill="#E4CA88"/>
<rect x="135" y="85" width="9" height="9" fill="#E4CA88"/>
<rect x="126" y="108" width="9" height="18" fill="#E4CA88"/>
<rect x="99" y="72" width="18" height="9" fill="#E4CA88"/>
<rect y="76" width="36" height="9" fill="#E4CA88"/>
<rect y="54" width="9" height="9" fill="#E4CA88"/>
<rect x="36" y="72" width="18" height="9" fill="#E4CA88"/>
<rect x="54" y="81" width="45" height="9" fill="#E4CA88"/>
<rect x="117" y="63" width="27" height="9" fill="#E4CA88"/>
<rect x="117" y="54" width="18" height="9" fill="#E4CA88"/>
<rect x="61" y="36" width="18" height="9" fill="#E4CA88"/>
<rect x="50" width="18" height="9" fill="#E4CA88"/>
<rect x="41" y="9" width="36" height="9" fill="#E4CA88"/>
<rect x="63" y="54" width="18" height="9" fill="#D6D4AF"/>
<rect x="90" y="54" width="18" height="9" fill="#D6D4AF"/>
<rect x="117" y="9" width="9" height="9" fill="#AFAD8E"/>
<rect x="135" y="9" width="9" height="9" fill="#E4CA88"/>
<rect x="126" y="9" width="9" height="18" fill="#E4CA88"/>
<rect x="90" y="18" width="9" height="9" fill="#E4CA88"/>
<rect x="99" y="18" width="27" height="9" fill="#AFAD8E"/>
<rect x="90" y="9" width="9" height="9" fill="#AFAD8E"/>
<rect x="99" y="9" width="18" height="9" fill="#C9C7A4"/>
<rect x="99" width="18" height="9" fill="#C9C7A4"/>
<rect x="99" y="27" width="27" height="9" fill="#E4CA88"/>
<rect x="99" width="9" height="9" fill="#D6D4AF"/>
<rect x="27" y="27" width="9" height="9" fill="#AFAD8E"/>
<rect x="45" y="27" width="9" height="9" fill="#E4CA88"/>
<rect x="36" y="27" width="9" height="18" fill="#E4CA88"/>
<rect y="36" width="9" height="9" fill="#E4CA88"/>
<rect x="9" y="36" width="27" height="9" fill="#AFAD8E"/>
<rect y="27" width="9" height="9" fill="#AFAD8E"/>
<rect x="9" y="27" width="18" height="9" fill="#C9C7A4"/>
<rect x="9" y="18" width="18" height="9" fill="#C9C7A4"/>
<rect x="9" y="45" width="27" height="9" fill="#E4CA88"/>
<rect x="9" y="18" width="9" height="9" fill="#D6D4AF"/>
<rect x="36" y="108" width="9" height="9" fill="#AFAD8E"/>
<rect x="54" y="108" width="9" height="9" fill="#E4CA88"/>
<rect x="45" y="108" width="9" height="18" fill="#E4CA88"/>
<rect x="9" y="117" width="9" height="9" fill="#E4CA88"/>
<rect x="18" y="117" width="27" height="9" fill="#AFAD8E"/>
<rect x="9" y="108" width="9" height="9" fill="#AFAD8E"/>
<rect x="18" y="108" width="18" height="9" fill="#C9C7A4"/>
<rect x="18" y="99" width="18" height="9" fill="#C9C7A4"/>
<rect x="18" y="126" width="27" height="9" fill="#E4CA88"/>
<rect x="18" y="99" width="9" height="9" fill="#D6D4AF"/>
</svg>
